<?xml version="1.0" encoding="UTF-8" standalone="no"?>
<!-- Created with Inkscape (http://www.inkscape.org/) -->

<svg
   xmlns:dc="http://purl.org/dc/elements/1.1/"
   xmlns:cc="http://creativecommons.org/ns#"
   xmlns:rdf="http://www.w3.org/1999/02/22-rdf-syntax-ns#"
   xmlns:svg="http://www.w3.org/2000/svg"
   xmlns="http://www.w3.org/2000/svg"
   xmlns:sodipodi="http://sodipodi.sourceforge.net/DTD/sodipodi-0.dtd"
   xmlns:inkscape="http://www.inkscape.org/namespaces/inkscape"
   width="16px"
   height="16px"
   viewBox="0 0 16 16"
   version="1.1"
   id="SVGRoot"
   inkscape:version="0.92.3 (2405546, 2018-03-11)"
   sodipodi:docname="sc_browser_icon.svg">
  <sodipodi:namedview
     id="base"
     pagecolor="#ffffff"
     bordercolor="#666666"
     borderopacity="1.0"
     inkscape:pageopacity="0.0"
     inkscape:pageshadow="2"
     inkscape:zoom="45.254834"
     inkscape:cx="4.612229"
     inkscape:cy="6.8036833"
     inkscape:document-units="px"
     inkscape:current-layer="layer1"
     showgrid="false"
     inkscape:window-width="1920"
     inkscape:window-height="1137"
     inkscape:window-x="-8"
     inkscape:window-y="-8"
     inkscape:window-maximized="1" />
  <defs
     id="defs1390" />
  <metadata
     id="metadata1393">
    <rdf:RDF>
      <cc:Work
         rdf:about="">
        <dc:format>image/svg+xml</dc:format>
        <dc:type
           rdf:resource="http://purl.org/dc/dcmitype/StillImage" />
        <dc:title></dc:title>
      </cc:Work>
    </rdf:RDF>
  </metadata>
  <g
     id="layer1"
     inkscape:groupmode="layer"
     inkscape:label="Layer 1">
    <path
       style="fill:#dcaa76;fill-opacity:1;fill-rule:evenodd;stroke:#000000;stroke-width:0.10153412;stroke-linecap:butt;stroke-linejoin:miter;stroke-miterlimit:4;stroke-dasharray:none;stroke-opacity:1"
       d="M 0.30045188,9.7462031 15.692848,13.870584 v 1.260278 L 0.2913732,11.004048 Z"
       id="path1964"
       inkscape:connector-curvature="0" />
    <path
       style="fill:#eee7d1;fill-opacity:1;fill-rule:evenodd;stroke:#000000;stroke-width:0.10142562;stroke-linecap:butt;stroke-linejoin:miter;stroke-miterlimit:4;stroke-dasharray:none;stroke-opacity:1"
       d="M 0.3037607,9.7759983 V 2.0729422 L 15.692848,6.2052633 v 7.6653207 z"
       id="path1974"
       inkscape:connector-curvature="0" />
    <path
       style="fill:#eee7d1;fill-opacity:1;fill-rule:evenodd;stroke:#000000;stroke-width:0.10153412;stroke-linecap:butt;stroke-linejoin:miter;stroke-miterlimit:4;stroke-dasharray:none;stroke-opacity:1"
       d="M 0.3037607,2.0729422 7.0707612,1.2587339 15.692848,6.2052633 Z"
       id="path1976"
       inkscape:connector-curvature="0" />
    <path
       style="fill:#ce0000;fill-opacity:1;fill-rule:evenodd;stroke:#000000;stroke-width:0.10153412;stroke-linecap:butt;stroke-linejoin:miter;stroke-miterlimit:4;stroke-dasharray:none;stroke-opacity:1"
       d="m 1.6319284,2.4308859 c 0,0 0.7818603,1.4298307 1.5671233,1.6354948 0.7852629,0.2056641 1.0844107,2.0005507 0.7852629,3.2158386 -0.2991478,1.2152884 0.4113281,2.1688207 0.4113281,3.0101747 0,0.841352 0.056091,1.402256 -0.2430575,1.589222 -0.2991477,0.186967 -2.0005508,0.336542 -0.8600498,0.598295 1.1405008,0.261755 3.4962892,0.710477 3.1223543,0.317846 C 6.0409548,12.405125 5.8352915,12.423822 5.8539881,11.69465 5.8726856,10.965476 5.5361437,9.3575575 5.9474723,8.6844743 6.3588011,8.0113921 6.2466194,8.1422692 6.8823093,7.300916 7.5179975,6.4595628 7.0131868,5.7490869 7.6301792,5.4499391 8.2471716,5.1507914 9.2194014,5.169488 10.154238,5.3938483 11.089074,5.6182091 12.584812,5.7490862 12.82787,5.6929961 13.070927,5.6369053 13.482256,5.3751515 13.407469,5.132094 13.497938,4.6246246 12.05444,3.8343387 11.887786,3.7232284 11.559841,3.5045849 8.7332865,1.6171075 7.2001534,1.4675335 5.6670207,1.3179602 3.7641947,1.4321878 3.2384388,1.5008943 2.9271618,1.5415722 1.840217,1.5770567 1.6319284,2.4308859 Z"
       id="path1978"
       inkscape:connector-curvature="0"
       sodipodi:nodetypes="cssssccsccssscsssc" />
    <path
       style="fill:#000000;fill-opacity:1;stroke:none;stroke-width:0.10153412;stroke-miterlimit:4;stroke-dasharray:none;stroke-opacity:1"
       id="path1982"
       sodipodi:type="arc"
       sodipodi:cx="5.1736064"
       sodipodi:cy="3.3343661"
       sodipodi:rx="0.072713241"
       sodipodi:ry="0.10576471"
       sodipodi:start="0"
       sodipodi:end="6.2259562"
       sodipodi:open="true"
       d="M 5.2463196,3.3343661 A 0.07271324,0.10576471 0 0 1 5.1746467,3.44012 0.07271324,0.10576471 0 0 1 5.1009229,3.3373921 a 0.07271324,0.10576471 0 0 1 0.069564,-0.1086933 0.07271324,0.10576471 0 0 1 0.075714,0.099618" />
    <path
       style="fill:#000000;fill-opacity:1;stroke:none;stroke-width:0.10153412;stroke-miterlimit:4;stroke-dasharray:none;stroke-opacity:1"
       id="path1982-6"
       sodipodi:type="arc"
       sodipodi:cx="5.8412461"
       sodipodi:cy="3.6516602"
       sodipodi:rx="0.072713241"
       sodipodi:ry="0.10576471"
       sodipodi:start="0"
       sodipodi:end="6.2259562"
       sodipodi:open="true"
       d="m 5.9139594,3.6516602 a 0.07271324,0.10576471 0 0 1 -0.071673,0.1057539 0.07271324,0.10576471 0 0 1 -0.073724,-0.1027279 0.07271324,0.10576471 0 0 1 0.069563,-0.1086933 0.07271324,0.10576471 0 0 1 0.075714,0.099618" />
    <path
       style="fill:#000000;fill-opacity:1;stroke:none;stroke-width:0.10153412;stroke-miterlimit:4;stroke-dasharray:none;stroke-opacity:1"
       id="path1982-9"
       sodipodi:type="arc"
       sodipodi:cx="6.7270241"
       sodipodi:cy="4.9208369"
       sodipodi:rx="0.072713241"
       sodipodi:ry="0.10576471"
       sodipodi:start="0"
       sodipodi:end="6.2259562"
       sodipodi:open="true"
       d="m 6.7997373,4.9208369 a 0.07271324,0.10576471 0 0 1 -0.071673,0.1057539 0.07271324,0.10576471 0 0 1 -0.073724,-0.1027279 0.07271324,0.10576471 0 0 1 0.069564,-0.1086933 0.07271324,0.10576471 0 0 1 0.075714,0.099618" />
    <path
       style="fill:#000000;fill-opacity:1;stroke:none;stroke-width:0.10153412;stroke-miterlimit:4;stroke-dasharray:none;stroke-opacity:1"
       id="path1982-4"
       sodipodi:type="arc"
       sodipodi:cx="7.7582326"
       sodipodi:cy="3.4136896"
       sodipodi:rx="0.072713241"
       sodipodi:ry="0.10576471"
       sodipodi:start="0"
       sodipodi:end="6.2259562"
       sodipodi:open="true"
       d="m 7.8309458,3.4136896 a 0.07271324,0.10576471 0 0 1 -0.071673,0.1057539 0.07271324,0.10576471 0 0 1 -0.073724,-0.1027279 0.07271324,0.10576471 0 0 1 0.069564,-0.1086933 0.07271324,0.10576471 0 0 1 0.075714,0.099618" />
    <path
       style="fill:#000000;fill-opacity:1;stroke:none;stroke-width:0.10153412;stroke-miterlimit:4;stroke-dasharray:none;stroke-opacity:1"
       id="path1982-93"
       sodipodi:type="arc"
       sodipodi:cx="7.6524677"
       sodipodi:cy="4.6035428"
       sodipodi:rx="0.072713241"
       sodipodi:ry="0.10576471"
       sodipodi:start="0"
       sodipodi:end="6.2259562"
       sodipodi:open="true"
       d="M 7.725181,4.6035428 A 0.07271324,0.10576471 0 0 1 7.653508,4.7092967 0.07271324,0.10576471 0 0 1 7.5797843,4.6065688 0.07271324,0.10576471 0 0 1 7.6493477,4.4978755 0.07271324,0.10576471 0 0 1 7.7250619,4.5974933" />
    <path
       style="fill:#000000;fill-opacity:1;stroke:none;stroke-width:0.10153412;stroke-miterlimit:4;stroke-dasharray:none;stroke-opacity:1"
       id="path1982-0"
       sodipodi:type="arc"
       sodipodi:cx="11.314572"
       sodipodi:cy="4.656425"
       sodipodi:rx="0.072713241"
       sodipodi:ry="0.10576471"
       sodipodi:start="0"
       sodipodi:end="6.2259562"
       sodipodi:open="true"
       d="m 11.387286,4.656425 a 0.07271324,0.10576471 0 0 1 -0.07167,0.1057539 0.07271324,0.10576471 0 0 1 -0.07372,-0.1027279 0.07271324,0.10576471 0 0 1 0.06956,-0.1086933 0.07271324,0.10576471 0 0 1 0.07572,0.099618" />
    <path
       style="fill:#000000;fill-opacity:1;stroke:none;stroke-width:0.10153412;stroke-miterlimit:4;stroke-dasharray:none;stroke-opacity:1"
       id="path1982-3"
       sodipodi:type="arc"
       sodipodi:cx="6.3965125"
       sodipodi:cy="2.3428218"
       sodipodi:rx="0.072713241"
       sodipodi:ry="0.10576471"
       sodipodi:start="0"
       sodipodi:end="6.2259562"
       sodipodi:open="true"
       d="M 6.4692257,2.3428218 A 0.07271324,0.10576471 0 0 1 6.3975528,2.4485757 0.07271324,0.10576471 0 0 1 6.323829,2.3458478 0.07271324,0.10576471 0 0 1 6.3933925,2.2371545 0.07271324,0.10576471 0 0 1 6.4691067,2.3367723" />
    <path
       style="fill:#000000;fill-opacity:1;stroke:none;stroke-width:0.10153412;stroke-miterlimit:4;stroke-dasharray:none;stroke-opacity:1"
       id="path1982-8"
       sodipodi:type="arc"
       sodipodi:cx="5.0480127"
       sodipodi:cy="7.062572"
       sodipodi:rx="0.072713241"
       sodipodi:ry="0.10576471"
       sodipodi:start="0"
       sodipodi:end="6.2259562"
       sodipodi:open="true"
       d="M 5.120726,7.062572 A 0.07271324,0.10576471 0 0 1 5.049053,7.1683259 0.07271324,0.10576471 0 0 1 4.9753293,7.065598 a 0.07271324,0.10576471 0 0 1 0.069563,-0.1086933 0.07271324,0.10576471 0 0 1 0.075714,0.099618" />
    <path
       style="fill:#000000;fill-opacity:1;stroke:none;stroke-width:0.10153412;stroke-miterlimit:4;stroke-dasharray:none;stroke-opacity:1"
       id="path1982-06"
       sodipodi:type="arc"
       sodipodi:cx="4.6513934"
       sodipodi:cy="5.3571162"
       sodipodi:rx="0.072713241"
       sodipodi:ry="0.10576471"
       sodipodi:start="0"
       sodipodi:end="6.2259562"
       sodipodi:open="true"
       d="m 4.7241067,5.3571162 a 0.07271324,0.10576471 0 0 1 -0.071673,0.1057539 0.07271324,0.10576471 0 0 1 -0.073724,-0.1027279 0.07271324,0.10576471 0 0 1 0.069564,-0.1086933 0.07271324,0.10576471 0 0 1 0.075714,0.099618" />
    <path
       style="fill:#000000;fill-opacity:1;stroke:none;stroke-width:0.10153412;stroke-miterlimit:4;stroke-dasharray:none;stroke-opacity:1"
       id="path1982-7"
       sodipodi:type="arc"
       sodipodi:cx="3.7391729"
       sodipodi:cy="3.3608074"
       sodipodi:rx="0.072713241"
       sodipodi:ry="0.10576471"
       sodipodi:start="0"
       sodipodi:end="6.2259562"
       sodipodi:open="true"
       d="m 3.8118862,3.3608074 a 0.07271324,0.10576471 0 0 1 -0.071673,0.1057539 0.07271324,0.10576471 0 0 1 -0.073724,-0.1027279 0.07271324,0.10576471 0 0 1 0.069563,-0.1086933 0.07271324,0.10576471 0 0 1 0.075714,0.099618" />
    <path
       style="fill:#000000;fill-opacity:1;stroke:none;stroke-width:0.10153412;stroke-miterlimit:4;stroke-dasharray:none;stroke-opacity:1"
       id="path1982-39"
       sodipodi:type="arc"
       sodipodi:cx="4.1093493"
       sodipodi:cy="2.2370572"
       sodipodi:rx="0.072713241"
       sodipodi:ry="0.10576471"
       sodipodi:start="0"
       sodipodi:end="6.2259562"
       sodipodi:open="true"
       d="m 4.1820625,2.2370572 a 0.07271324,0.10576471 0 0 1 -0.071673,0.1057539 0.07271324,0.10576471 0 0 1 -0.073724,-0.1027279 0.07271324,0.10576471 0 0 1 0.069563,-0.1086933 0.07271324,0.10576471 0 0 1 0.075714,0.099618" />
    <path
       style="fill:#000000;fill-opacity:1;stroke:none;stroke-width:0.10153412;stroke-miterlimit:4;stroke-dasharray:none;stroke-opacity:1"
       id="path1982-5"
       sodipodi:type="arc"
       sodipodi:cx="2.9459374"
       sodipodi:cy="2.8452044"
       sodipodi:rx="0.072713241"
       sodipodi:ry="0.10576471"
       sodipodi:start="0"
       sodipodi:end="6.2259562"
       sodipodi:open="true"
       d="m 3.0186506,2.8452044 a 0.07271324,0.10576471 0 0 1 -0.071673,0.1057538 0.07271324,0.10576471 0 0 1 -0.073724,-0.1027278 0.07271324,0.10576471 0 0 1 0.069564,-0.1086933 0.07271324,0.10576471 0 0 1 0.075714,0.099618" />
    <path
       style="fill:#000000;fill-opacity:1;stroke:none;stroke-width:0.10153412;stroke-miterlimit:4;stroke-dasharray:none;stroke-opacity:1"
       id="path1982-05"
       sodipodi:type="arc"
       sodipodi:cx="9.4769087"
       sodipodi:cy="3.6781015"
       sodipodi:rx="0.072713241"
       sodipodi:ry="0.10576471"
       sodipodi:start="0"
       sodipodi:end="6.2259562"
       sodipodi:open="true"
       d="M 9.5496219,3.6781015 A 0.07271324,0.10576471 0 0 1 9.477949,3.7838554 0.07271324,0.10576471 0 0 1 9.4042252,3.6811275 0.07271324,0.10576471 0 0 1 9.4737887,3.5724342 0.07271324,0.10576471 0 0 1 9.5495029,3.672052" />
    <path
       style="fill:#000000;fill-opacity:1;stroke:none;stroke-width:0.10153412;stroke-miterlimit:4;stroke-dasharray:none;stroke-opacity:1"
       id="path1982-38"
       sodipodi:type="arc"
       sodipodi:cx="6.3039684"
       sodipodi:cy="6.4940867"
       sodipodi:rx="0.072713241"
       sodipodi:ry="0.10576471"
       sodipodi:start="0"
       sodipodi:end="6.2259562"
       sodipodi:open="true"
       d="M 6.3766817,6.4940867 A 0.07271324,0.10576471 0 0 1 6.3050087,6.5998406 0.07271324,0.10576471 0 0 1 6.231285,6.4971127 0.07271324,0.10576471 0 0 1 6.3008484,6.3884194 0.07271324,0.10576471 0 0 1 6.3765626,6.4880372" />
    <path
       style="fill:#000000;fill-opacity:1;stroke:none;stroke-width:0.10153412;stroke-miterlimit:4;stroke-dasharray:none;stroke-opacity:1"
       id="path1982-1"
       sodipodi:type="arc"
       sodipodi:cx="5.4710712"
       sodipodi:cy="8.2524261"
       sodipodi:rx="0.072713241"
       sodipodi:ry="0.10576471"
       sodipodi:start="0"
       sodipodi:end="6.2259562"
       sodipodi:open="true"
       d="M 5.5437845,8.2524261 A 0.07271324,0.10576471 0 0 1 5.4721115,8.35818 0.07271324,0.10576471 0 0 1 5.3983878,8.2554521 a 0.07271324,0.10576471 0 0 1 0.069563,-0.1086933 0.07271324,0.10576471 0 0 1 0.075714,0.099618" />
    <path
       style="fill:#000000;fill-opacity:1;stroke:none;stroke-width:0.10153412;stroke-miterlimit:4;stroke-dasharray:none;stroke-opacity:1"
       id="path1982-09"
       sodipodi:type="arc"
       sodipodi:cx="4.6249504"
       sodipodi:cy="9.1514263"
       sodipodi:rx="0.072713241"
       sodipodi:ry="0.10576471"
       sodipodi:start="0"
       sodipodi:end="6.2259562"
       sodipodi:open="true"
       d="M 4.6976636,9.1514263 A 0.07271324,0.10576471 0 0 1 4.6259907,9.2571802 0.07271324,0.10576471 0 0 1 4.5522669,9.1544523 0.07271324,0.10576471 0 0 1 4.6218304,9.045759 0.07271324,0.10576471 0 0 1 4.6975446,9.1453768" />
    <path
       style="fill:#000000;fill-opacity:1;stroke:none;stroke-width:0.10153412;stroke-miterlimit:4;stroke-dasharray:none;stroke-opacity:1"
       id="path1982-02"
       sodipodi:type="arc"
       sodipodi:cx="5.3653049"
       sodipodi:cy="11.081632"
       sodipodi:rx="0.072713241"
       sodipodi:ry="0.10576471"
       sodipodi:start="0"
       sodipodi:end="6.2259562"
       sodipodi:open="true"
       d="m 5.4380182,11.081632 a 0.07271324,0.10576471 0 0 1 -0.071673,0.105754 0.07271324,0.10576471 0 0 1 -0.073724,-0.102728 0.07271324,0.10576471 0 0 1 0.069563,-0.108694 0.07271324,0.10576471 0 0 1 0.075714,0.09962" />
    <path
       style="fill:#000000;fill-opacity:1;stroke:none;stroke-width:0.10153412;stroke-miterlimit:4;stroke-dasharray:none;stroke-opacity:1"
       id="path1982-19"
       sodipodi:type="arc"
       sodipodi:cx="4.2018948"
       sodipodi:cy="12.297923"
       sodipodi:rx="0.072713241"
       sodipodi:ry="0.10576471"
       sodipodi:start="0"
       sodipodi:end="6.2259562"
       sodipodi:open="true"
       d="m 4.274608,12.297923 a 0.07271324,0.10576471 0 0 1 -0.071673,0.105754 0.07271324,0.10576471 0 0 1 -0.073724,-0.102728 0.07271324,0.10576471 0 0 1 0.069563,-0.108693 0.07271324,0.10576471 0 0 1 0.075714,0.09962" />
    <path
       style="fill:#000000;fill-opacity:1;stroke:none;stroke-width:0.10153412;stroke-miterlimit:4;stroke-dasharray:none;stroke-opacity:1"
       id="path1982-2"
       sodipodi:type="arc"
       sodipodi:cx="5.5636139"
       sodipodi:cy="12.390469"
       sodipodi:rx="0.072713241"
       sodipodi:ry="0.10576471"
       sodipodi:start="0"
       sodipodi:end="6.2259562"
       sodipodi:open="true"
       d="m 5.6363271,12.390469 a 0.07271324,0.10576471 0 0 1 -0.071673,0.105753 0.07271324,0.10576471 0 0 1 -0.073724,-0.102727 0.07271324,0.10576471 0 0 1 0.069564,-0.108694 0.07271324,0.10576471 0 0 1 0.075714,0.09962" />
  </g>
</svg>
